<svg width="16" height="16" viewBox="0 0 16 16" fill="none" xmlns="http://www.w3.org/2000/svg">
<g clip-path="url(#clip0_0_908)">
<path d="M5.33334 10C5.88562 10 6.33334 9.55228 6.33334 9C6.33334 8.44772 5.88562 8 5.33334 8C4.78105 8 4.33334 8.44772 4.33334 9C4.33334 9.55228 4.78105 10 5.33334 10Z" fill="#0468FF"/>
<path d="M14.854 7.30865C14.93 6.65265 15 5.90531 15 5.39131C15 1.70665 10.7067 0.333313 8 0.333313C6.244 0.333313 4.97667 1.27531 4.55067 1.64131C3.21733 1.71798 1 2.56665 1 5.39131C1 5.91265 1.06933 6.65665 1.14467 7.30931C0.469333 7.58531 0 8.23865 0 8.99998C0 9.96265 0.748667 10.746 1.69267 10.8193C2.596 13.4413 5.07933 15.3333 8 15.3333C10.9207 15.3333 13.404 13.442 14.3073 10.8193C15.252 10.746 16 9.96265 16 8.99998C16 8.23798 15.5307 7.58465 14.854 7.30865ZM13.45 10.218C13.45 10.2193 13.4487 10.22 13.4487 10.2213V10.2233C12.7647 12.5933 10.5833 14.3333 8 14.3333C5.18333 14.3333 2.846 12.2646 2.406 9.56598L3.07133 7.23865C3.66533 7.04998 4.996 6.51598 5.57867 5.38865C6.47533 6.23598 8.48467 7.27598 12.956 7.33131L13.5947 9.56265C13.5587 9.78531 13.5113 10.004 13.45 10.218Z" fill="#0468FF"/>
<path d="M10.6667 10C11.2189 10 11.6667 9.55228 11.6667 9C11.6667 8.44772 11.2189 8 10.6667 8C10.1144 8 9.66666 8.44772 9.66666 9C9.66666 9.55228 10.1144 10 10.6667 10Z" fill="#0468FF"/>
<path d="M9.31933 11.4733C8.59199 12.1767 7.40799 12.1767 6.68066 11.4733C6.48266 11.2833 6.16533 11.2873 5.97333 11.4867C5.78133 11.6853 5.78733 12.0013 5.98599 12.194C6.54133 12.73 7.27066 12.9973 7.99999 12.9973C8.72933 12.9973 9.45866 12.73 10.014 12.194C10.2127 12.002 10.218 11.6853 10.0267 11.4867C9.83466 11.2873 9.51799 11.2833 9.31933 11.4733Z" fill="#0468FF"/>
</g>
<defs>
<clipPath id="clip0_0_908">
<rect width="16" height="16" fill="white"/>
</clipPath>
</defs>
</svg>
