<svg width="328" height="219" viewBox="0 0 328 219" fill="none" xmlns="http://www.w3.org/2000/svg">
<path d="M173.206 92.4354C173.206 92.4354 168.984 86.123 160.962 88.6479C149.503 92.2544 147.029 116.002 147.029 116.002C147.029 116.002 154.207 121.052 161.807 119.789C174.79 117.63 197.694 112.635 197.694 112.635L185.873 92.0145L173.206 92.4354Z" fill="#031D40" stroke="#031D40" stroke-width="2.71472" stroke-miterlimit="10" stroke-linecap="round" stroke-linejoin="round"/>
<path d="M148.297 217H225.984L205.068 149.293C205.068 149.293 239.711 146.726 232.723 138.714C232.723 138.714 211.089 115.909 188.407 123.219C170.564 128.967 152.519 122.314 138.164 137.043C133.751 141.571 125.611 156.612 125.396 161.708C125.18 166.804 153.393 149.819 153.393 149.819L148.297 217Z" fill="#006CFD" stroke="#006CFD" stroke-width="2.71472" stroke-miterlimit="10"/>
<path d="M226.987 132.053L247.837 111.588L273.68 135.461C273.68 135.461 261.677 148.823 254.216 154.891C237.095 168.816 219.426 172.444 203.445 155.388C192.281 143.474 191.34 128.227 191.34 128.227" fill="#006CFD"/>
<path d="M226.987 132.053L247.837 111.588L273.68 135.461C273.68 135.461 261.677 148.823 254.216 154.891C237.095 168.816 219.426 172.444 203.445 155.388C192.281 143.474 191.34 128.227 191.34 128.227" stroke="#006CFD" stroke-width="2.71472" stroke-miterlimit="10"/>
<path d="M126.765 158.9L94.0353 159.729L93.5117 197.49C93.5117 197.49 111.464 196.77 121.057 195.946C150.409 193.429 153.33 172.493 152.275 149.179C151.536 132.897 145.904 133.764 145.904 133.764" fill="#006CFD"/>
<path d="M126.765 158.9L94.0353 159.729L93.5117 197.49C93.5117 197.49 111.464 196.77 121.057 195.946C150.409 193.429 153.33 172.493 152.275 149.179C151.536 132.897 145.904 133.764 145.904 133.764" stroke="#006CFD" stroke-width="2.71472" stroke-miterlimit="10"/>
<path d="M64.4238 188.219C66.6952 189.048 73.4841 190.592 73.9275 187.066C74.3708 183.539 67.6282 181.027 63.402 181.544C57.829 182.222 56.3218 190.201 62.6632 193.382C69.8575 196.989 83.6254 197.515 92.4958 196.639" stroke="#031D40" stroke-width="2.71472" stroke-miterlimit="10" stroke-linecap="round" stroke-linejoin="round"/>
<path d="M68.9328 182.188C68.9328 182.188 74.1807 183.358 73.8303 178.893C73.6234 176.217 64.7953 172.959 60.4424 175.939C56.4231 178.695 59.2265 184.128 59.2265 184.128" stroke="#031D40" stroke-width="2.71472" stroke-miterlimit="10" stroke-linecap="round" stroke-linejoin="round"/>
<path d="M70.6538 176.061C70.6538 176.061 76.2437 177.298 74.7872 172.53C73.6852 168.915 63.6749 166.559 59.7062 170.127C56.7804 172.757 59.3896 176.898 59.3896 176.898" stroke="#031D40" stroke-width="2.71472" stroke-miterlimit="10" stroke-linecap="round" stroke-linejoin="round"/>
<path d="M81.8048 163.773C81.8048 163.773 74.5388 164.35 67.7119 160.798C59.4917 156.518 57.0893 150.711 53.9144 152.403C51.1279 153.888 55.9958 166.084 62.5695 168.676" stroke="#031D40" stroke-width="2.71472" stroke-miterlimit="10" stroke-linecap="round" stroke-linejoin="round"/>
<path d="M79.0526 163.568C79.0526 163.568 72.1327 151.759 77.748 149.962C81.6913 148.7 83.0128 153.539 87.4079 157.815C89.5315 159.881 94.7161 161.501 94.7161 161.501" stroke="#031D40" stroke-width="2.71472" stroke-miterlimit="10" stroke-linecap="round" stroke-linejoin="round"/>
<path d="M318.995 168.474L318.656 172.952" stroke="#0468FF" stroke-width="2.71472" stroke-miterlimit="10" stroke-linecap="round" stroke-linejoin="round"/>
<path d="M318.192 179.096L317.854 183.577" stroke="#0468FF" stroke-width="2.71472" stroke-miterlimit="10" stroke-linecap="round" stroke-linejoin="round"/>
<path d="M310.848 175.456L315.34 175.794" stroke="#0468FF" stroke-width="2.71472" stroke-miterlimit="10" stroke-linecap="round" stroke-linejoin="round"/>
<path d="M321.508 176.255L326 176.597" stroke="#0468FF" stroke-width="2.71472" stroke-miterlimit="10" stroke-linecap="round" stroke-linejoin="round"/>
<path d="M158.84 103.554C158.903 109.353 159.013 126.838 159.013 126.838C159.013 126.838 164.877 130.933 174.009 130.836C184.995 130.719 190.986 124.562 190.986 124.562L186.916 107.207C186.916 107.207 190.94 106.748 189.601 102.936C188.242 99.0724 183.775 101.421 183.775 101.421C183.775 101.421 185.738 89.5322 173.144 88.9936C164.898 88.6401 158.785 93.185 159.211 101.227" fill="white"/>
<path d="M158.84 103.554C158.903 109.353 159.013 126.838 159.013 126.838C159.013 126.838 164.877 130.933 174.009 130.836C184.995 130.719 190.986 124.562 190.986 124.562L186.916 107.207C186.916 107.207 190.94 106.748 189.601 102.936C188.242 99.0724 183.775 101.421 183.775 101.421C183.775 101.421 185.738 89.5322 173.144 88.9936C164.898 88.6401 158.785 93.185 159.211 101.227" stroke="#031D40" stroke-width="2.71472" stroke-miterlimit="10" stroke-linecap="round" stroke-linejoin="round"/>
<path d="M167.026 90.563C167.026 90.563 166.181 97.2078 161.25 100.048C159.215 101.218 159.215 101.218 159.215 101.218" stroke="#031D40" stroke-width="2.71472" stroke-miterlimit="10" stroke-linecap="round" stroke-linejoin="round"/>
<path d="M167.708 99.4924C167.708 99.4924 168.257 102.434 168.097 102.872C167.936 103.309 165.585 106.024 165.775 107.05C165.965 108.077 169.443 107.261 169.443 107.261" stroke="#031D40" stroke-width="2.71472" stroke-miterlimit="10" stroke-linecap="round" stroke-linejoin="round"/>
<path d="M163.396 102.683C163.396 102.683 163.485 103.051 163.651 102.89C163.82 102.734 163.604 102.468 163.396 102.683Z" stroke="#031D40" stroke-width="2.71472" stroke-miterlimit="10" stroke-linecap="round" stroke-linejoin="round"/>
<path d="M172.492 101.644C172.492 101.644 172.581 102.012 172.746 101.851C172.912 101.695 172.696 101.428 172.492 101.644Z" stroke="#031D40" stroke-width="2.71472" stroke-miterlimit="10" stroke-linecap="round" stroke-linejoin="round"/>
<path d="M165.361 110.994C165.741 111.723 166.522 112.481 168.106 112.603C169.689 112.725 170.597 112.097 171.103 111.44" stroke="#031D40" stroke-width="2.71472" stroke-miterlimit="10" stroke-linecap="round" stroke-linejoin="round"/>
<path d="M179.169 116.229C179.169 116.229 173.44 119.916 166.17 116.372C161.703 114.192 159.849 109.963 159.28 107.556C158.786 105.481 158.6 104.063 159.263 99.0342" stroke="#031D40" stroke-width="2.71472" stroke-miterlimit="10" stroke-linecap="round" stroke-linejoin="round"/>
<path d="M167.023 90.563C167.023 90.563 166.128 98.7396 158.832 99.9306C158.832 99.9348 159.833 90.8281 167.023 90.563Z" fill="#031D40"/>
<path d="M179.277 84.1662C188.41 83.1772 195.165 87.8063 200.636 96.3491C204.951 103.087 206.986 109.689 206.986 109.689C206.986 109.689 200.653 118.106 189.676 118.106C189.427 118.106 186.919 107.202 186.919 107.202C186.919 107.202 188.321 107.32 189.913 105.919C191.365 104.639 191.179 102.582 189.153 101.029C186.721 99.1686 183.474 101.551 183.474 101.551C183.474 101.551 176.14 101.656 172.13 96.9972C168.566 92.8562 168.57 89.4896 168.57 89.4896C168.57 89.4896 171.121 85.0499 179.277 84.1662Z" fill="#031D40" stroke="#031D40" stroke-width="2.71472" stroke-miterlimit="10" stroke-linecap="round" stroke-linejoin="round"/>
<path d="M287.15 108.462C286.238 110.696 282.818 116.739 279.897 114.694C276.979 112.649 279.652 105.987 282.882 103.218C287.133 99.5655 294.074 103.82 292.166 110.637C290.004 118.372 281.125 128.876 274.514 134.827" stroke="#031D40" stroke-width="2.71472" stroke-miterlimit="10" stroke-linecap="round" stroke-linejoin="round"/>
<path d="M279.641 107.733C279.641 107.733 276.982 112.392 273.899 109.126C272.054 107.173 275.571 98.4707 280.714 97.2671C285.463 96.1561 287.608 101.879 287.608 101.879" stroke="#031D40" stroke-width="2.71472" stroke-miterlimit="10" stroke-linecap="round" stroke-linejoin="round"/>
<path d="M273.938 104.872C273.938 104.872 271.097 109.825 268.534 105.545C266.592 102.301 271.578 93.3328 276.898 92.8068C280.82 92.4196 282.137 97.1287 282.137 97.1287" stroke="#031D40" stroke-width="2.71472" stroke-miterlimit="10" stroke-linecap="round" stroke-linejoin="round"/>
<path d="M257.305 104.838C257.305 104.838 262.62 99.8676 264.575 92.4442C266.931 83.5058 264.233 77.8247 267.627 76.6211C270.608 75.5648 276.38 87.3606 273.884 93.9508" stroke="#031D40" stroke-width="2.71472" stroke-miterlimit="10" stroke-linecap="round" stroke-linejoin="round"/>
<path d="M259.004 102.666C259.004 102.666 254.896 89.6204 249.788 92.5494C246.199 94.6072 248.901 98.8365 249.116 104.955C249.222 107.914 246.934 112.825 246.934 112.825" stroke="#031D40" stroke-width="2.71472" stroke-miterlimit="10" stroke-linecap="round" stroke-linejoin="round"/>
<path d="M18.6758 217H292.694" stroke="#006CFD" stroke-width="2.71472" stroke-miterlimit="10" stroke-linecap="round" stroke-linejoin="round"/>
<path d="M219.278 41.0175C226.892 47.501 237.976 46.7466 245.339 37.9474C252.637 29.2248 251.821 17.7073 244.21 11.219C236.664 4.79069 225.279 5.90497 217.979 14.6324C210.91 23.0745 211.468 34.3611 219.278 41.0175Z" fill="white" stroke="#0468FF" stroke-width="2.31251" stroke-linejoin="round"/>
<path d="M238.845 19.8262C238.961 20.937 238.153 21.9916 237.044 22.1816C235.939 22.3745 234.947 21.6306 234.83 20.5199C234.714 19.4091 235.522 18.3544 236.631 18.1644C237.736 17.9715 238.728 18.7154 238.845 19.8262Z" fill="#0468FF"/>
<path d="M225.77 21.5207C225.887 22.6315 225.079 23.6862 223.97 23.8762C222.865 24.0691 221.873 23.3252 221.756 22.2144C221.64 21.1036 222.448 20.049 223.557 19.859C224.662 19.6733 225.654 20.4099 225.77 21.5207Z" fill="#0468FF"/>
<path d="M235.328 33.6615C233.774 35.3796 230.974 35.6978 229.291 34.343" stroke="#0468FF" stroke-width="2.31251" stroke-miterlimit="10" stroke-linecap="round" stroke-linejoin="round"/>
<path d="M233.307 28.6857C231.785 28.7401 228.748 28.851 228.748 28.851L231.365 21.9556" stroke="#0468FF" stroke-width="2.31251" stroke-miterlimit="10" stroke-linecap="round" stroke-linejoin="round"/>
<path d="M219.278 41.0175C226.892 47.501 237.976 46.7466 245.339 37.9474C252.637 29.2248 251.821 17.7073 244.21 11.219C236.664 4.79069 225.279 5.90497 217.979 14.6324C210.91 23.0745 211.468 34.3611 219.278 41.0175Z" stroke="#0468FF" stroke-width="2.31251" stroke-miterlimit="10" stroke-linecap="round" stroke-linejoin="round"/>
<path d="M290.638 29.9264L222.882 83.235L217.06 82.2782L215.309 72.9915L277.404 18.7815L283.06 19.6836L290.638 29.9264Z" fill="white" stroke="#0468FF" stroke-width="2.31251" stroke-linejoin="round"/>
<path d="M278.253 19.0467L207.992 72.1458L215.85 82.3473L286.111 29.2483L278.253 19.0467Z" fill="white" stroke="#0468FF" stroke-width="2.31251" stroke-linejoin="round"/>
<path d="M278.253 19.0467L207.992 72.1458L215.85 82.3473L286.111 29.2483L278.253 19.0467Z" stroke="#0468FF" stroke-width="2.31251" stroke-miterlimit="10" stroke-linecap="round" stroke-linejoin="round"/>
<path d="M248.823 66.0522C246.866 76.3279 252.505 86.4143 263.148 89.1428C273.699 91.8512 282.908 85.5768 284.866 75.301C286.803 65.1162 280.734 54.9184 270.179 52.21C259.965 49.5877 250.831 55.5091 248.823 66.0522Z" fill="white" stroke="#0468FF" stroke-width="2.31251" stroke-linejoin="round"/>
<path d="M263.026 77.8211C261.233 77.7125 259.583 75.9995 259.471 74.1269" stroke="#0468FF" stroke-width="2.31251" stroke-miterlimit="10" stroke-linecap="round" stroke-linejoin="round"/>
<path d="M265.944 72.5296C265.038 71.7036 264.105 70.7163 263.277 69.5948C264.718 69.1371 270.54 66.7327 270.54 66.7327" stroke="#0468FF" stroke-width="2.31251" stroke-miterlimit="10" stroke-linecap="round" stroke-linejoin="round"/>
<path d="M276.25 73.8798C275.511 74.6791 274.262 74.6578 273.463 73.8354C272.664 73.0183 272.615 71.706 273.354 70.9066C274.093 70.1072 275.342 70.1286 276.141 70.951C276.94 71.7681 276.99 73.0804 276.25 73.8798Z" fill="#0468FF"/>
<path d="M266.135 63.9586C265.396 64.758 264.147 64.7366 263.348 63.9142C262.549 63.0972 262.499 61.7849 263.239 60.9855C263.978 60.1862 265.227 60.2075 266.026 61.0299C266.82 61.8524 266.874 63.1593 266.135 63.9586Z" fill="#0468FF"/>
<path d="M248.823 66.0522C246.866 76.3279 252.505 86.4143 263.148 89.1428C273.699 91.8512 282.908 85.5768 284.866 75.301C286.803 65.1162 280.734 54.9184 270.179 52.21C259.965 49.5877 250.831 55.5091 248.823 66.0522Z" stroke="#0468FF" stroke-width="2.31251" stroke-miterlimit="10" stroke-linecap="round" stroke-linejoin="round"/>
<path d="M16.7298 131.286C21.4406 136.051 28.8665 136.15 34.262 130.649C39.6094 125.196 39.7079 117.425 34.9989 112.658C30.3306 107.934 22.6844 108.06 17.3351 113.516C12.1552 118.793 11.8981 126.395 16.7298 131.286Z" fill="white" stroke="#0468FF" stroke-width="2.31251" stroke-linejoin="round"/>
<path d="M30.9557 118.164C30.9706 118.915 30.3724 119.579 29.6223 119.646C28.8749 119.716 28.2552 119.164 28.2403 118.413C28.2254 117.662 28.8236 116.999 29.5736 116.931C30.3211 116.861 30.9408 117.413 30.9557 118.164Z" fill="#0468FF"/>
<path d="M22.1237 118.572C22.1386 119.323 21.5404 119.987 20.7903 120.055C20.0428 120.125 19.4231 119.573 19.4083 118.822C19.3934 118.07 19.9916 117.407 20.7416 117.339C21.4893 117.274 22.1088 117.821 22.1237 118.572Z" fill="#0468FF"/>
<path d="M27.8391 127.211C26.7075 128.279 24.8225 128.34 23.7758 127.34" stroke="#0468FF" stroke-width="2.31251" stroke-miterlimit="10" stroke-linecap="round" stroke-linejoin="round"/>
<path d="M26.7631 123.783C25.7467 123.737 23.717 123.646 23.717 123.646L25.8445 119.167" stroke="#0468FF" stroke-width="2.31251" stroke-miterlimit="10" stroke-linecap="round" stroke-linejoin="round"/>
<path d="M16.7298 131.286C21.4406 136.051 28.8665 136.15 34.262 130.649C39.6094 125.196 39.7079 117.425 34.9989 112.658C30.3306 107.934 22.6844 108.06 17.3351 113.516C12.1552 118.793 11.8981 126.395 16.7298 131.286Z" stroke="#0468FF" stroke-width="2.31251" stroke-miterlimit="10" stroke-linecap="round" stroke-linejoin="round"/>
<path d="M65.3559 124.532L19.9132 160.286L16.0084 159.644L14.8345 153.416L56.4801 117.057L60.2738 117.662L65.3559 124.532Z" fill="white" stroke="#0468FF" stroke-width="2.31251" stroke-linejoin="round"/>
<path d="M57.0518 117.236L9.92969 152.848L15.1999 159.69L62.322 124.078L57.0518 117.236Z" fill="white" stroke="#0468FF" stroke-width="2.31251" stroke-linejoin="round"/>
<path d="M57.0518 117.236L9.92969 152.848L15.1999 159.69L62.322 124.078L57.0518 117.236Z" stroke="#0468FF" stroke-width="2.31251" stroke-miterlimit="10" stroke-linecap="round" stroke-linejoin="round"/>
<path d="M37.6144 156.265C40.0907 162.773 46.7889 166.225 53.7472 163.619C60.646 161.038 63.6576 153.953 61.1813 147.446C58.7255 140.996 51.7457 137.649 44.8441 140.232C38.1653 142.73 35.0734 149.589 37.6144 156.265Z" fill="white" stroke="#0468FF" stroke-width="2.31251" stroke-linejoin="round"/>
<path d="M49.8674 157.222C48.8157 157.859 47.2848 157.541 46.5676 156.536" stroke="#0468FF" stroke-width="2.31251" stroke-miterlimit="10" stroke-linecap="round" stroke-linejoin="round"/>
<path d="M49.508 153.23C48.7136 153.121 47.8487 152.933 46.996 152.63C47.6463 151.82 50.0813 148.238 50.0813 148.238" stroke="#0468FF" stroke-width="2.31251" stroke-miterlimit="10" stroke-linecap="round" stroke-linejoin="round"/>
<path d="M55.8276 150.162C55.6843 150.9 54.9686 151.376 54.2315 151.227C53.4965 151.081 53.0153 150.364 53.1586 149.627C53.3018 148.89 54.0176 148.413 54.7546 148.562C55.4896 148.708 55.9708 149.425 55.8276 150.162Z" fill="#0468FF"/>
<path d="M46.4897 148.318C46.3464 149.056 45.6307 149.532 44.8936 149.383C44.1587 149.237 43.6774 148.52 43.8207 147.783C43.9639 147.045 44.6797 146.569 45.4167 146.718C46.1509 146.869 46.6329 147.581 46.4897 148.318Z" fill="#0468FF"/>
<path d="M37.6144 156.265C40.0907 162.773 46.7889 166.225 53.7472 163.619C60.646 161.038 63.6576 153.953 61.1813 147.446C58.7255 140.996 51.7457 137.649 44.8441 140.232C38.1653 142.73 35.0734 149.589 37.6144 156.265Z" stroke="#0468FF" stroke-width="2.31251" stroke-miterlimit="10" stroke-linecap="round" stroke-linejoin="round"/>
</svg>
