<svg width="14" height="16" viewBox="0 0 14 16" fill="none" xmlns="http://www.w3.org/2000/svg">
<path d="M13.9999 6.49557C13.9998 6.33988 13.9945 6.18498 13.9843 6.03108C13.2756 6.03108 0.38141 6 1.52588e-05 6C0.0151086 6.04409 0.150829 6.9148 0.938681 9.1208C1.22655 9.92687 2.13218 10.4685 3.19221 10.4685H4.80782L4.37021 11.5624C3.00675 11.3324 1.78156 12.389 1.78156 13.7496C1.78156 14.9803 2.77816 15.9995 4.00025 15.9995C5.07437 15.9995 5.95816 15.2171 6.16953 14.2183H7.83082C7.91876 14.6338 8.12269 15.018 8.42724 15.33C9.2989 16.2232 10.7011 16.2235 11.573 15.33C11.9894 14.9033 12.2188 14.342 12.2188 13.7496C12.2188 12.3887 10.9934 11.3325 9.63015 11.5624L9.19247 10.4685H10.8081C11.867 10.4685 12.7718 9.92803 13.0607 9.12343C14.0288 6.50579 13.9999 6.61691 13.9999 6.49557ZM7.83167 13.2809H6.16865C6.0461 12.7135 5.70629 12.226 5.24052 11.9108L5.81754 10.4685H8.18278L8.7598 11.9108C8.29403 12.226 7.95419 12.7135 7.83167 13.2809Z" fill="#0468FF"/>
<path d="M13.858 5.0936C13.2798 2.27043 10.927 0 8.00007 0H7.2501C7.04807 0 6.86876 0.129434 6.8052 0.321209L5.22263 5.0936H13.858Z" fill="#0468FF"/>
</svg>
